<mxfile host="app.diagrams.net" agent="Mozilla/5.0 (Macintosh; Intel Mac OS X 10_15_7) AppleWebKit/537.36 (KHTML, like Gecko) Chrome/137.0.0.0 Safari/537.36" version="28.0.5">
  <diagram name="Page-1" id="K2rsrTp5yFfVZbXNRDB6">
    <mxGraphModel dx="976" dy="630" grid="1" gridSize="10" guides="1" tooltips="1" connect="1" arrows="1" fold="1" page="1" pageScale="1" pageWidth="850" pageHeight="1100" math="0" shadow="0">
      <root>
        <mxCell id="0" />
        <mxCell id="1" parent="0" />
        <mxCell id="alW0ItKAqQshCZF6b7rs-1" value="&lt;font style=&quot;font-size: 24px;&quot;&gt;SCRUM&lt;/font&gt;" style="rounded=1;whiteSpace=wrap;html=1;fillColor=none;strokeColor=none;labelBackgroundColor=none;" parent="1" vertex="1">
          <mxGeometry x="375" y="20" width="100" height="50" as="geometry" />
        </mxCell>
        <mxCell id="alW0ItKAqQshCZF6b7rs-29" value="" style="group;rounded=1;labelBackgroundColor=none;fillColor=#fff2cc;strokeColor=#d6b656;" parent="1" connectable="0" vertex="1">
          <mxGeometry x="500" y="170" width="260" height="130" as="geometry" />
        </mxCell>
        <mxCell id="alW0ItKAqQshCZF6b7rs-22" value="Product&lt;div&gt;Backlog&lt;/div&gt;" style="rhombus;whiteSpace=wrap;html=1;rounded=1;labelBackgroundColor=none;fillColor=#e1d5e7;strokeColor=#9673a6;" parent="alW0ItKAqQshCZF6b7rs-29" vertex="1">
          <mxGeometry y="40" width="80" height="80" as="geometry" />
        </mxCell>
        <mxCell id="alW0ItKAqQshCZF6b7rs-21" value="&lt;font style=&quot;font-size: 22px;&quot;&gt;3 x Artifacts&lt;/font&gt;" style="rounded=1;whiteSpace=wrap;html=1;fillColor=none;strokeColor=none;labelBackgroundColor=none;" parent="alW0ItKAqQshCZF6b7rs-29" vertex="1">
          <mxGeometry x="60" width="140" height="50" as="geometry" />
        </mxCell>
        <mxCell id="alW0ItKAqQshCZF6b7rs-27" value="Sprint&lt;div&gt;Backlog&lt;/div&gt;" style="rhombus;whiteSpace=wrap;html=1;rounded=1;labelBackgroundColor=none;fillColor=#d5e8d4;strokeColor=#82b366;" parent="alW0ItKAqQshCZF6b7rs-29" vertex="1">
          <mxGeometry x="90" y="40" width="80" height="80" as="geometry" />
        </mxCell>
        <mxCell id="alW0ItKAqQshCZF6b7rs-28" value="Increment" style="rhombus;whiteSpace=wrap;html=1;rounded=1;labelBackgroundColor=none;fillColor=#dae8fc;strokeColor=#6c8ebf;" parent="alW0ItKAqQshCZF6b7rs-29" vertex="1">
          <mxGeometry x="180" y="40" width="80" height="80" as="geometry" />
        </mxCell>
        <mxCell id="alW0ItKAqQshCZF6b7rs-72" value="" style="group;labelBackgroundColor=none;fillColor=#d5e8d4;strokeColor=#82b366;rounded=1;" parent="1" connectable="0" vertex="1">
          <mxGeometry x="164.95" y="310" width="520" height="120" as="geometry" />
        </mxCell>
        <mxCell id="alW0ItKAqQshCZF6b7rs-36" value="Sprint&lt;div&gt;Planning&lt;/div&gt;" style="shape=trapezoid;perimeter=trapezoidPerimeter;whiteSpace=wrap;html=1;fixedSize=1;rounded=1;labelBackgroundColor=none;fillColor=#dae8fc;strokeColor=#6c8ebf;" parent="alW0ItKAqQshCZF6b7rs-72" vertex="1">
          <mxGeometry x="45" y="60" width="100" height="50" as="geometry" />
        </mxCell>
        <mxCell id="alW0ItKAqQshCZF6b7rs-32" value="&lt;font style=&quot;font-size: 22px;&quot;&gt;4 x Ceremonies&lt;/font&gt;" style="rounded=1;whiteSpace=wrap;html=1;fillColor=none;strokeColor=none;labelBackgroundColor=none;" parent="alW0ItKAqQshCZF6b7rs-72" vertex="1">
          <mxGeometry x="165" width="190" height="50" as="geometry" />
        </mxCell>
        <mxCell id="alW0ItKAqQshCZF6b7rs-38" value="Daily&lt;div&gt;Scrum&lt;/div&gt;" style="shape=trapezoid;perimeter=trapezoidPerimeter;whiteSpace=wrap;html=1;fixedSize=1;rounded=1;labelBackgroundColor=none;fillColor=#e1d5e7;strokeColor=#9673a6;" parent="alW0ItKAqQshCZF6b7rs-72" vertex="1">
          <mxGeometry x="155" y="60" width="100" height="50" as="geometry" />
        </mxCell>
        <mxCell id="alW0ItKAqQshCZF6b7rs-39" value="Sprint&lt;div&gt;Review&lt;/div&gt;" style="shape=trapezoid;perimeter=trapezoidPerimeter;whiteSpace=wrap;html=1;fixedSize=1;rounded=1;labelBackgroundColor=none;fillColor=#ffe6cc;strokeColor=#d79b00;" parent="alW0ItKAqQshCZF6b7rs-72" vertex="1">
          <mxGeometry x="265" y="60" width="100" height="50" as="geometry" />
        </mxCell>
        <mxCell id="alW0ItKAqQshCZF6b7rs-71" value="Sprint&lt;div&gt;Retrospective&lt;/div&gt;" style="shape=trapezoid;perimeter=trapezoidPerimeter;whiteSpace=wrap;html=1;fixedSize=1;rounded=1;labelBackgroundColor=none;fillColor=#f8cecc;strokeColor=#b85450;" parent="alW0ItKAqQshCZF6b7rs-72" vertex="1">
          <mxGeometry x="375" y="60" width="100" height="50" as="geometry" />
        </mxCell>
        <mxCell id="alW0ItKAqQshCZF6b7rs-77" value="" style="group;labelBackgroundColor=none;rounded=1;" parent="1" connectable="0" vertex="1">
          <mxGeometry x="64.95" y="90" width="720" height="100" as="geometry" />
        </mxCell>
        <mxCell id="alW0ItKAqQshCZF6b7rs-8" style="edgeStyle=orthogonalEdgeStyle;rounded=1;orthogonalLoop=1;jettySize=auto;html=1;exitX=1;exitY=0.5;exitDx=0;exitDy=0;entryX=0;entryY=0.5;entryDx=0;entryDy=0;labelBackgroundColor=none;fontColor=default;" parent="alW0ItKAqQshCZF6b7rs-77" source="alW0ItKAqQshCZF6b7rs-2" target="alW0ItKAqQshCZF6b7rs-3" edge="1">
          <mxGeometry relative="1" as="geometry" />
        </mxCell>
        <mxCell id="alW0ItKAqQshCZF6b7rs-2" value="Product Backlog" style="rounded=1;whiteSpace=wrap;html=1;labelBackgroundColor=none;fillColor=#fff2cc;strokeColor=#d6b656;" parent="alW0ItKAqQshCZF6b7rs-77" vertex="1">
          <mxGeometry x="20" width="80" height="50" as="geometry" />
        </mxCell>
        <mxCell id="alW0ItKAqQshCZF6b7rs-9" style="edgeStyle=orthogonalEdgeStyle;rounded=1;orthogonalLoop=1;jettySize=auto;html=1;exitX=1;exitY=0.5;exitDx=0;exitDy=0;entryX=0;entryY=0.5;entryDx=0;entryDy=0;labelBackgroundColor=none;fontColor=default;" parent="alW0ItKAqQshCZF6b7rs-77" source="alW0ItKAqQshCZF6b7rs-3" target="alW0ItKAqQshCZF6b7rs-4" edge="1">
          <mxGeometry relative="1" as="geometry" />
        </mxCell>
        <mxCell id="alW0ItKAqQshCZF6b7rs-3" value="Sprint Planning" style="rounded=1;whiteSpace=wrap;html=1;labelBackgroundColor=none;fillColor=#d5e8d4;strokeColor=#82b366;" parent="alW0ItKAqQshCZF6b7rs-77" vertex="1">
          <mxGeometry x="119.99999999999999" width="80" height="50" as="geometry" />
        </mxCell>
        <mxCell id="alW0ItKAqQshCZF6b7rs-10" style="edgeStyle=orthogonalEdgeStyle;rounded=1;orthogonalLoop=1;jettySize=auto;html=1;exitX=1;exitY=0.5;exitDx=0;exitDy=0;entryX=0;entryY=0.5;entryDx=0;entryDy=0;labelBackgroundColor=none;fontColor=default;" parent="alW0ItKAqQshCZF6b7rs-77" source="alW0ItKAqQshCZF6b7rs-4" target="alW0ItKAqQshCZF6b7rs-5" edge="1">
          <mxGeometry relative="1" as="geometry" />
        </mxCell>
        <mxCell id="alW0ItKAqQshCZF6b7rs-4" value="Sprint&lt;div&gt;Backlog&lt;/div&gt;" style="rounded=1;whiteSpace=wrap;html=1;labelBackgroundColor=none;fillColor=#fff2cc;strokeColor=#d6b656;" parent="alW0ItKAqQshCZF6b7rs-77" vertex="1">
          <mxGeometry x="220" width="80" height="50" as="geometry" />
        </mxCell>
        <mxCell id="alW0ItKAqQshCZF6b7rs-11" style="edgeStyle=orthogonalEdgeStyle;rounded=1;orthogonalLoop=1;jettySize=auto;html=1;exitX=1;exitY=0.5;exitDx=0;exitDy=0;entryX=0;entryY=0.5;entryDx=0;entryDy=0;labelBackgroundColor=none;fontColor=default;" parent="alW0ItKAqQshCZF6b7rs-77" source="alW0ItKAqQshCZF6b7rs-5" target="alW0ItKAqQshCZF6b7rs-6" edge="1">
          <mxGeometry relative="1" as="geometry" />
        </mxCell>
        <mxCell id="alW0ItKAqQshCZF6b7rs-5" value="Sprint" style="rounded=1;whiteSpace=wrap;html=1;labelBackgroundColor=none;fillColor=#d5e8d4;strokeColor=#82b366;" parent="alW0ItKAqQshCZF6b7rs-77" vertex="1">
          <mxGeometry x="320" width="80" height="50" as="geometry" />
        </mxCell>
        <mxCell id="alW0ItKAqQshCZF6b7rs-12" style="edgeStyle=orthogonalEdgeStyle;rounded=1;orthogonalLoop=1;jettySize=auto;html=1;exitX=1;exitY=0.5;exitDx=0;exitDy=0;entryX=0;entryY=0.5;entryDx=0;entryDy=0;labelBackgroundColor=none;fontColor=default;" parent="alW0ItKAqQshCZF6b7rs-77" source="alW0ItKAqQshCZF6b7rs-6" target="alW0ItKAqQshCZF6b7rs-7" edge="1">
          <mxGeometry relative="1" as="geometry" />
        </mxCell>
        <mxCell id="alW0ItKAqQshCZF6b7rs-6" value="Increment" style="rounded=1;whiteSpace=wrap;html=1;labelBackgroundColor=none;fillColor=#fff2cc;strokeColor=#d6b656;" parent="alW0ItKAqQshCZF6b7rs-77" vertex="1">
          <mxGeometry x="420" width="80" height="50" as="geometry" />
        </mxCell>
        <mxCell id="alW0ItKAqQshCZF6b7rs-75" style="edgeStyle=orthogonalEdgeStyle;rounded=1;orthogonalLoop=1;jettySize=auto;html=1;exitX=1;exitY=0.5;exitDx=0;exitDy=0;entryX=0;entryY=0.5;entryDx=0;entryDy=0;labelBackgroundColor=none;fontColor=default;" parent="alW0ItKAqQshCZF6b7rs-77" source="alW0ItKAqQshCZF6b7rs-7" target="alW0ItKAqQshCZF6b7rs-73" edge="1">
          <mxGeometry relative="1" as="geometry" />
        </mxCell>
        <mxCell id="alW0ItKAqQshCZF6b7rs-7" value="Sprint&lt;div&gt;Review&lt;/div&gt;" style="rounded=1;whiteSpace=wrap;html=1;labelBackgroundColor=none;fillColor=#d5e8d4;strokeColor=#82b366;" parent="alW0ItKAqQshCZF6b7rs-77" vertex="1">
          <mxGeometry x="520" width="80" height="50" as="geometry" />
        </mxCell>
        <mxCell id="alW0ItKAqQshCZF6b7rs-14" value="1-2 weeks" style="rounded=1;whiteSpace=wrap;html=1;fillColor=none;strokeColor=none;labelBackgroundColor=none;" parent="alW0ItKAqQshCZF6b7rs-77" vertex="1">
          <mxGeometry x="325.05" y="70" width="70" height="30" as="geometry" />
        </mxCell>
        <mxCell id="alW0ItKAqQshCZF6b7rs-76" style="edgeStyle=orthogonalEdgeStyle;rounded=1;orthogonalLoop=1;jettySize=auto;html=1;exitX=1;exitY=0.5;exitDx=0;exitDy=0;entryX=0;entryY=0.5;entryDx=0;entryDy=0;labelBackgroundColor=none;fontColor=default;" parent="alW0ItKAqQshCZF6b7rs-77" source="alW0ItKAqQshCZF6b7rs-73" target="alW0ItKAqQshCZF6b7rs-2" edge="1">
          <mxGeometry relative="1" as="geometry">
            <Array as="points">
              <mxPoint x="720" y="25" />
              <mxPoint x="720" y="70" />
              <mxPoint y="70" />
              <mxPoint y="25" />
            </Array>
          </mxGeometry>
        </mxCell>
        <mxCell id="alW0ItKAqQshCZF6b7rs-73" value="Sprint&lt;div&gt;Retrospective&lt;/div&gt;" style="rounded=1;whiteSpace=wrap;html=1;labelBackgroundColor=none;fillColor=#d5e8d4;strokeColor=#82b366;" parent="alW0ItKAqQshCZF6b7rs-77" vertex="1">
          <mxGeometry x="620" width="80" height="50" as="geometry" />
        </mxCell>
        <mxCell id="H4ft9FC7T2seqUX7BpRU-1" value="" style="group" parent="1" connectable="0" vertex="1">
          <mxGeometry x="80" y="170" width="280" height="130" as="geometry" />
        </mxCell>
        <mxCell id="alW0ItKAqQshCZF6b7rs-41" value="" style="group;rounded=1;labelBackgroundColor=none;fillColor=#f5f5f5;fontColor=#333333;strokeColor=#666666;container=0;" parent="H4ft9FC7T2seqUX7BpRU-1" connectable="0" vertex="1">
          <mxGeometry width="280" height="130" as="geometry" />
        </mxCell>
        <mxCell id="alW0ItKAqQshCZF6b7rs-15" value="Product Owner" style="ellipse;whiteSpace=wrap;html=1;rounded=1;labelBackgroundColor=none;fillColor=#e1d5e7;strokeColor=#9673a6;" parent="H4ft9FC7T2seqUX7BpRU-1" vertex="1">
          <mxGeometry x="10" y="40" width="80" height="80" as="geometry" />
        </mxCell>
        <mxCell id="alW0ItKAqQshCZF6b7rs-16" value="Scrum&lt;div&gt;Master&lt;/div&gt;" style="ellipse;whiteSpace=wrap;html=1;rounded=1;labelBackgroundColor=none;fillColor=#f8cecc;strokeColor=#b85450;" parent="H4ft9FC7T2seqUX7BpRU-1" vertex="1">
          <mxGeometry x="100" y="40" width="80" height="80" as="geometry" />
        </mxCell>
        <mxCell id="alW0ItKAqQshCZF6b7rs-17" value="Developers" style="ellipse;whiteSpace=wrap;html=1;rounded=1;labelBackgroundColor=none;fillColor=#fff2cc;strokeColor=#d6b656;" parent="H4ft9FC7T2seqUX7BpRU-1" vertex="1">
          <mxGeometry x="190" y="40" width="80" height="80" as="geometry" />
        </mxCell>
        <mxCell id="alW0ItKAqQshCZF6b7rs-20" value="&lt;font style=&quot;font-size: 22px;&quot;&gt;3 x Roles&lt;/font&gt;" style="rounded=1;whiteSpace=wrap;html=1;fillColor=none;strokeColor=none;labelBackgroundColor=none;" parent="H4ft9FC7T2seqUX7BpRU-1" vertex="1">
          <mxGeometry x="90" width="100" height="50" as="geometry" />
        </mxCell>
        <mxCell id="alW0ItKAqQshCZF6b7rs-47" value="Feature 2:&amp;nbsp;&lt;div&gt;Navigation System&lt;/div&gt;" style="rounded=1;whiteSpace=wrap;html=1;labelBackgroundColor=none;fillColor=#e1d5e7;strokeColor=#9673a6;" parent="1" vertex="1">
          <mxGeometry x="131" y="1020" width="120" height="40" as="geometry" />
        </mxCell>
        <mxCell id="alW0ItKAqQshCZF6b7rs-48" value="Feature 3:&amp;nbsp;&lt;div&gt;Lane Detection - DL&lt;span style=&quot;background-color: transparent; color: light-dark(rgb(0, 0, 0), rgb(255, 255, 255));&quot;&gt;&amp;nbsp;&lt;/span&gt;&lt;/div&gt;" style="rounded=1;whiteSpace=wrap;html=1;labelBackgroundColor=none;fillColor=#e1d5e7;strokeColor=#9673a6;" parent="1" vertex="1">
          <mxGeometry x="131" y="1070" width="120" height="40" as="geometry" />
        </mxCell>
        <mxCell id="alW0ItKAqQshCZF6b7rs-62" style="edgeStyle=elbowEdgeStyle;rounded=1;orthogonalLoop=1;jettySize=auto;html=1;exitX=0.5;exitY=1;exitDx=0;exitDy=0;entryX=0;entryY=0.5;entryDx=0;entryDy=0;labelBackgroundColor=none;fontColor=default;" parent="1" source="alW0ItKAqQshCZF6b7rs-46" target="alW0ItKAqQshCZF6b7rs-47" edge="1">
          <mxGeometry relative="1" as="geometry">
            <Array as="points">
              <mxPoint x="90" y="590" />
            </Array>
          </mxGeometry>
        </mxCell>
        <mxCell id="alW0ItKAqQshCZF6b7rs-63" style="edgeStyle=elbowEdgeStyle;rounded=1;orthogonalLoop=1;jettySize=auto;html=1;exitX=0.5;exitY=1;exitDx=0;exitDy=0;entryX=0;entryY=0.5;entryDx=0;entryDy=0;labelBackgroundColor=none;fontColor=default;" parent="1" source="alW0ItKAqQshCZF6b7rs-46" target="alW0ItKAqQshCZF6b7rs-48" edge="1">
          <mxGeometry relative="1" as="geometry">
            <Array as="points">
              <mxPoint x="90" y="630" />
            </Array>
          </mxGeometry>
        </mxCell>
        <mxCell id="alW0ItKAqQshCZF6b7rs-68" style="edgeStyle=elbowEdgeStyle;rounded=1;orthogonalLoop=1;jettySize=auto;html=1;exitX=0.5;exitY=1;exitDx=0;exitDy=0;entryX=0;entryY=0.5;entryDx=0;entryDy=0;labelBackgroundColor=none;fontColor=default;" parent="1" source="alW0ItKAqQshCZF6b7rs-45" target="alW0ItKAqQshCZF6b7rs-50" edge="1">
          <mxGeometry relative="1" as="geometry">
            <Array as="points">
              <mxPoint x="175" y="610" />
            </Array>
          </mxGeometry>
        </mxCell>
        <mxCell id="alW0ItKAqQshCZF6b7rs-69" style="edgeStyle=elbowEdgeStyle;rounded=1;orthogonalLoop=1;jettySize=auto;html=1;exitX=0.5;exitY=1;exitDx=0;exitDy=0;entryX=0;entryY=0.5;entryDx=0;entryDy=0;labelBackgroundColor=none;fontColor=default;" parent="1" source="alW0ItKAqQshCZF6b7rs-45" target="T4fJnCsRXPa2P3c8TllR-1" edge="1">
          <mxGeometry relative="1" as="geometry">
            <Array as="points">
              <mxPoint x="175" y="630" />
            </Array>
            <mxPoint x="265" y="705" as="targetPoint" />
          </mxGeometry>
        </mxCell>
        <mxCell id="alW0ItKAqQshCZF6b7rs-70" style="edgeStyle=elbowEdgeStyle;rounded=1;orthogonalLoop=1;jettySize=auto;html=1;exitX=0.5;exitY=1;exitDx=0;exitDy=0;entryX=0;entryY=0.5;entryDx=0;entryDy=0;labelBackgroundColor=none;fontColor=default;" parent="1" source="alW0ItKAqQshCZF6b7rs-45" target="T4fJnCsRXPa2P3c8TllR-2" edge="1">
          <mxGeometry relative="1" as="geometry">
            <Array as="points">
              <mxPoint x="175" y="630" />
            </Array>
            <mxPoint x="265" y="785" as="targetPoint" />
          </mxGeometry>
        </mxCell>
        <mxCell id="alW0ItKAqQshCZF6b7rs-45" value="Feature 1:&amp;nbsp;&lt;div&gt;Remote Control&lt;/div&gt;" style="rounded=1;whiteSpace=wrap;html=1;labelBackgroundColor=none;fillColor=#e1d5e7;strokeColor=#9673a6;" parent="1" vertex="1">
          <mxGeometry x="115" y="530" width="120" height="40" as="geometry" />
        </mxCell>
        <mxCell id="alW0ItKAqQshCZF6b7rs-61" style="edgeStyle=elbowEdgeStyle;rounded=1;orthogonalLoop=1;jettySize=auto;html=1;labelBackgroundColor=none;fontColor=default;exitX=0.5;exitY=1;exitDx=0;exitDy=0;" parent="1" source="alW0ItKAqQshCZF6b7rs-46" target="alW0ItKAqQshCZF6b7rs-45" edge="1">
          <mxGeometry relative="1" as="geometry">
            <Array as="points">
              <mxPoint x="90" y="560" />
            </Array>
          </mxGeometry>
        </mxCell>
        <mxCell id="alW0ItKAqQshCZF6b7rs-46" value="&lt;div&gt;Epic: Robot System&lt;/div&gt;" style="rounded=1;whiteSpace=wrap;html=1;labelBackgroundColor=none;fillColor=#dae8fc;strokeColor=#6c8ebf;" parent="1" vertex="1">
          <mxGeometry x="30" y="450" width="120" height="40" as="geometry" />
        </mxCell>
        <mxCell id="alW0ItKAqQshCZF6b7rs-50" value="Story 1:&amp;nbsp;&lt;div&gt;&lt;div&gt;As a &lt;u&gt;team member&lt;/u&gt;,&lt;/div&gt;&lt;div&gt;I want to &lt;u&gt;control the robot’s direction using keyboard keys,&lt;/u&gt;&lt;/div&gt;&lt;div&gt;so that &lt;u&gt;I can test motor functions without a physical remote.&lt;/u&gt;&lt;/div&gt;&lt;/div&gt;" style="rounded=1;whiteSpace=wrap;html=1;labelBackgroundColor=none;align=left;fillColor=#ffe6cc;strokeColor=#d79b00;" parent="1" vertex="1">
          <mxGeometry x="265" y="560" width="325" height="80" as="geometry" />
        </mxCell>
        <mxCell id="T4fJnCsRXPa2P3c8TllR-1" value="Story 1:&amp;nbsp;&lt;div&gt;&lt;div&gt;As a &lt;u&gt;team member&lt;/u&gt;,&lt;/div&gt;&lt;div&gt;I want to &lt;u&gt;control the robot’s direction using keyboard keys,&lt;/u&gt;&lt;/div&gt;&lt;div&gt;so that &lt;u&gt;I can test motor functions without a physical remote.&lt;/u&gt;&lt;/div&gt;&lt;/div&gt;" style="rounded=1;whiteSpace=wrap;html=1;labelBackgroundColor=none;align=left;fillColor=#ffe6cc;strokeColor=#d79b00;" vertex="1" parent="1">
          <mxGeometry x="265" y="670" width="325" height="80" as="geometry" />
        </mxCell>
        <mxCell id="T4fJnCsRXPa2P3c8TllR-2" value="Story 1:&amp;nbsp;&lt;div&gt;&lt;div&gt;As a &lt;u&gt;team member&lt;/u&gt;,&lt;/div&gt;&lt;div&gt;I want to &lt;u&gt;control the robot’s direction using keyboard keys,&lt;/u&gt;&lt;/div&gt;&lt;div&gt;so that &lt;u&gt;I can test motor functions without a physical remote.&lt;/u&gt;&lt;/div&gt;&lt;/div&gt;" style="rounded=1;whiteSpace=wrap;html=1;labelBackgroundColor=none;align=left;fillColor=#ffe6cc;strokeColor=#d79b00;" vertex="1" parent="1">
          <mxGeometry x="265" y="780" width="325" height="80" as="geometry" />
        </mxCell>
      </root>
    </mxGraphModel>
  </diagram>
</mxfile>
